<?xml version="1.0" encoding="UTF-8"?>
<svg width="419px" height="131px" viewBox="0 0 419 131" version="1.1" xmlns="http://www.w3.org/2000/svg" xmlns:xlink="http://www.w3.org/1999/xlink">
    <!-- Generator: sketchtool 44.1 (41455) - http://www.bohemiancoding.com/sketch -->
    <title>8C242AEC-1506-47EE-A41A-3DE459783808</title>
    <desc>Created with sketchtool.</desc>
    <defs></defs>
    <g id="Page-1" stroke="none" stroke-width="1" fill="none" fill-rule="evenodd">
        <g id="Complexes-/-List-/-Desktop-HD" transform="translate(-511.000000, -144.000000)" fill-rule="nonzero" fill="#FFFFFF">
            <g id="Hero-Unit" transform="translate(0.000000, 64.000000)">
                <g id="compass-development-logo" transform="translate(511.000000, 80.000000)">
                    <path d="M162.591884,54.2858937 C162.673413,53.110204 162.673413,51.9302791 162.591884,50.7545894 C161.838792,40.6796135 155.46599,33.0790821 150.251304,28.4466184 C144.815121,23.7002415 138.43599,20.1436232 132.246715,16.7072464 C130.563333,15.770628 128.88628,14.8086957 127.234541,13.8910628 L118.45058,8.82826087 C114.033285,6.27154589 109.603333,3.72115942 105.160725,1.17710145 L104.262077,0.601207729 L103.338116,1.13280193 L25.1431401,46.3056522 L0,60.8232367 L0,97.5285507 L28.6301449,114.058599 C35.5914976,118.064541 43.4451691,122.608406 52.1974879,125.449903 C60.6474088,128.152643 69.3859514,129.851922 78.2329469,130.512705 C81.6081481,130.782721 84.9833494,130.917729 88.3585507,130.917729 C93.9973479,130.919896 99.629861,130.541435 105.217681,129.784928 C113.895345,128.652969 122.398583,126.446379 130.531691,123.215942 C139.739662,119.488454 147.232609,114.716763 152.789034,109.033768 C159.452947,102.211643 162.832367,94.0415459 162.560242,85.4031401 L162.560242,85.4031401 L162.560242,54.2858937 L162.591884,54.2858937 Z M3.68951691,65.1139614 L28.6048309,79.4986473 C35.5661836,83.5045894 43.4198551,88.0484541 52.1721739,90.8899517 C60.6221385,93.5925205 69.3606608,95.2917956 78.2076329,95.9527536 C87.2068646,96.6774572 96.2579061,96.4334652 105.205024,95.2249758 C113.882688,94.0930176 122.385926,91.8864274 130.519034,88.6559903 C139.733333,84.9285024 147.219952,80.1568116 152.776377,74.4738164 C155.040142,72.1745534 157.002897,69.5972406 158.617585,66.8036715 C157.851836,72.9423188 155.092609,78.2962319 150.112077,83.3906763 C144.916377,88.7066184 137.853768,93.1935266 129.120435,96.7248309 C121.269556,99.8392914 113.061763,101.965112 104.686087,103.053333 C96.0033773,104.227675 87.2195895,104.465305 78.486087,103.762126 C69.9308093,103.115124 61.4812391,101.464718 53.3113043,98.8448792 C44.9703382,96.1615942 37.2748792,91.7316425 30.4907246,87.7889855 L3.68951691,72.3347826 L3.68951691,65.1139614 Z M150.219662,63.0128986 C144.815121,58.2348792 138.43599,54.6845894 132.240386,51.2292271 C130.557005,50.2926087 128.879952,49.3623188 127.228213,48.4130435 L118.463237,43.3502415 C114.037504,40.7893076 109.607552,38.2347021 105.173382,35.6864251 L104.24942,35.1548309 L103.325459,35.6864251 L48.4889855,67.3289372 L31.7690821,77.0178744 L30.5033816,76.2837681 L25.5165217,73.3789855 L104.262077,27.9466667 C108.379823,30.3135266 112.493349,32.6888245 116.602657,35.0725604 L125.373961,40.1353623 C127.044686,41.0972947 128.772367,42.033913 130.436763,42.9831884 C136.455169,46.3246377 142.682415,49.78 147.789517,54.2858937 C151.048744,57.0890802 153.78681,60.4463171 155.877343,64.202657 C155.371048,65.150799 154.81549,66.0718004 154.212947,66.9618841 C152.974542,65.5636584 151.651508,64.2427384 150.251304,63.00657 L150.219662,63.0128986 Z M151.909372,69.9679227 C151.352464,70.6007729 150.77657,71.2652657 150.156377,71.8981159 C144.960676,77.214058 137.898068,81.7009662 129.164734,85.2322705 C121.313937,88.3469808 113.106112,90.4728095 104.730386,91.5607729 C96.0476255,92.7344811 87.2639059,92.9721083 78.5303865,92.2695652 C69.9750539,91.6229703 61.5254364,89.9725548 53.3556039,87.3523188 C46.9764734,85.2702415 41.0023671,82.2009179 35.5218841,79.1252657 L50.3622222,70.5564734 L104.262077,39.4582126 C108.379823,41.8250725 112.493349,44.2003704 116.602657,46.5841063 L125.373961,51.6469082 C127.044686,52.6088406 128.772367,53.5454589 130.436763,54.4947343 C136.455169,57.8361836 142.682415,61.2915459 147.789517,65.7974396 C149.259936,67.092703 150.636673,68.4905876 151.909372,69.9805797 L151.909372,69.9679227 Z M150.251304,51.4950242 C144.840435,46.7233333 138.43599,43.166715 132.246715,39.7303382 C130.563333,38.7937198 128.88628,37.86343 127.234541,36.9141546 L118.469565,31.8513527 C114.043833,29.2904187 109.613881,26.7358132 105.17971,24.1875362 L104.255749,23.655942 L103.331787,24.1875362 L21.8016908,71.2589372 L15.5491304,67.6516908 L23.1939614,63.2217391 L104.262077,16.3908213 C108.375604,18.7534622 112.482802,21.1245411 116.583671,23.504058 L125.367633,28.5668599 C127.038357,29.5287923 128.766039,30.4654106 130.430435,31.414686 C136.448841,34.7561353 142.676087,38.2114976 147.783188,42.7173913 C151.523333,46.0208696 156.31401,51.3874396 158.161932,58.3361353 C158.022705,58.8677295 157.864493,59.3993237 157.687295,59.9309179 C155.600734,56.7774041 153.097273,53.9205638 150.244976,51.4380676 L150.251304,51.4950242 Z M150.150048,106.394783 C144.954348,111.710725 137.891739,116.197633 129.158406,119.728937 C121.30771,122.84396 113.099846,124.969799 104.724058,126.05744 C96.041297,127.231148 87.2575774,127.468775 78.524058,126.766232 C69.9686626,126.120102 61.5189911,124.469676 53.3492754,121.848986 C44.9640097,119.115072 37.2748792,114.672464 30.4907246,110.755121 L3.68951691,95.3578744 L3.68951691,88.1433816 L28.6048309,102.528068 C35.5661836,106.53401 43.4198551,111.077874 52.1721739,113.919372 C60.6221676,116.621827 69.3606764,118.3211 78.2076329,118.982174 C81.5828341,119.25219 84.9580354,119.387198 88.3332367,119.387198 C93.9834088,119.409646 99.6286389,119.050212 105.230338,118.311353 C113.908002,117.179394 122.41124,114.972804 130.544348,111.742367 C139.752319,108.014879 147.245266,103.243188 152.801691,97.5601932 C155.065283,95.274783 157.022399,92.7050039 158.623913,89.9153623 C157.62401,97.3197101 153.630725,102.901449 150.137391,106.470725 L150.150048,106.394783 Z M150.137391,94.9591787 C144.941691,100.275121 137.879082,104.762029 129.145749,108.293333 C121.294951,111.408044 113.087127,113.533872 104.711401,114.621836 C96.02864,115.795544 87.2449204,116.033171 78.511401,115.330628 C69.9560448,114.684207 61.5064071,113.033788 53.3366184,110.413382 C44.9513527,107.679469 37.2622222,103.23686 30.4780676,99.3195169 L3.68951691,83.8463285 L3.68951691,76.6255072 L28.6048309,91.0101932 C35.5661836,95.0161353 43.4198551,99.56 52.1721739,102.401498 C60.6221676,105.103953 69.3606764,106.803225 78.2076329,107.4643 C81.5828341,107.734316 84.9580354,107.869324 88.3332367,107.869324 C93.9720449,107.871818 99.6045799,107.493356 105.192367,106.736522 C113.870093,105.604886 122.373371,103.398285 130.506377,100.167536 C139.752319,96.4843478 147.257923,91.7316425 152.814348,86.0359903 C155.089498,83.7403866 157.055281,81.1576366 158.661884,78.3531884 C157.896135,84.4918357 155.136908,89.8520773 150.156377,94.9465217 L150.137391,94.9591787 Z M150.251304,39.9898068 C144.840435,35.2117874 138.43599,31.6614976 132.246715,28.2251208 C130.563333,27.2885024 128.88628,26.32657 127.234541,25.4089372 L118.45058,20.3461353 C114.033285,17.7894203 109.603333,15.2390338 105.160725,12.6949758 L104.236763,12.1633816 L103.312802,12.6949758 L21.3333816,60.0195169 L11.840628,65.5063285 L5.58806763,61.8927536 L26.9973913,49.5268599 L104.262077,4.91724638 C108.375604,7.27988728 112.482802,9.65096618 116.583671,12.0304831 L125.367633,17.093285 C127.038357,18.0552174 128.766039,18.9918357 130.430435,19.9411111 C136.448841,23.2825604 142.676087,26.7379227 147.783188,31.2438164 C152.352367,35.2750725 157.908792,41.806087 158.788454,50.2736232 C156.518827,46.3983236 153.633232,42.9185105 150.244976,39.9708213 L150.251304,39.9898068 Z" id="Shape"></path>
                    <path d="M223.826473,57.1906763 C226.904655,60.203116 231.490125,61.0738064 235.458261,59.3993237 C236.702496,58.8638799 237.832502,58.0947888 238.787053,57.1337198 C239.728299,56.1761296 240.472271,55.0429697 240.976715,53.798599 C241.497966,52.5078175 241.762374,51.1277374 241.755121,49.7357005 C241.763486,48.3250925 241.499172,46.9261599 240.976715,45.6158454 C240.483492,44.3738889 239.745265,43.2439494 238.806039,42.2933816 C237.854983,41.3530502 236.728204,40.6090323 235.489903,40.1037198 C232.814009,39.0604043 229.843817,39.0604043 227.167923,40.1037198 C224.644069,41.0946641 222.637648,43.078207 221.617826,45.5905314 C221.0807,46.9126172 220.809728,48.327696 220.820435,49.754686 C220.811405,51.1692183 221.082408,52.5715526 221.617826,53.8808696 C222.126736,55.1274369 222.877379,56.2609304 223.826473,57.2159903 M225.345314,47.03343 C225.645624,46.2373146 226.096885,45.5067018 226.6743,44.8817391 C227.245648,44.2761027 227.934804,43.7936934 228.69942,43.4641546 C230.371204,42.7623596 232.25498,42.7623596 233.926763,43.4641546 C234.692508,43.7969949 235.380164,44.2863301 235.945556,44.9007246 C236.499428,45.5388084 236.928746,46.2750886 237.211256,47.071401 C237.848718,48.8230495 237.848718,50.743279 237.211256,52.4949275 C236.908446,53.3026023 236.455351,54.0455921 235.875942,54.6845894 C235.309209,55.300272 234.619206,55.7897434 233.850821,56.1211594 C232.233182,56.8083783 230.405658,56.8083783 228.788019,56.1211594 C228.01684,55.7905912 227.321268,55.3060597 226.743913,54.6972464 C226.142755,54.0652213 225.66422,53.3270332 225.332657,52.5202415 C224.97707,51.6377714 224.800664,50.6933573 224.81372,49.742029 C224.803151,48.8046675 224.966221,47.8734504 225.294686,46.9954589" id="Shape"></path>
                    <path d="M249.330338,48.6978261 C249.330338,46.8435749 249.767005,45.3943478 250.596039,44.3944444 C251.449887,43.393986 252.718609,42.8449076 254.032415,42.9072464 C254.620644,42.89606 255.203426,43.0217156 255.734783,43.2742995 C256.23167,43.5199373 256.664896,43.8773486 257.000483,44.3185024 C257.362036,44.8016755 257.638155,45.3432097 257.81686,45.9196135 C258.020251,46.5773553 258.120585,47.2626207 258.1143,47.9510628 L258.1143,59.5575362 L262.082271,59.5575362 L262.082271,48.6978261 C262.062396,47.7992093 262.199459,46.9040154 262.487295,46.0525121 C262.72485,45.3939781 263.088085,44.7878697 263.556812,44.2678744 C263.963959,43.8214987 264.468541,43.4750046 265.031353,43.255314 C266.19488,42.7935356 267.495537,42.8209179 268.638599,43.331256 C269.137331,43.5909967 269.570218,43.9611155 269.9043,44.41343 C270.250337,44.8907415 270.501683,45.4299535 270.644734,46.0018841 C270.808181,46.6493607 270.888985,47.3149279 270.885217,47.9827053 L270.885217,59.5891787 L274.808889,59.5891787 L274.808889,48.1978744 C274.808889,45.3247343 274.100097,43.1350725 272.695169,41.5909179 C271.282988,40.0706053 269.282343,39.2352723 267.208357,39.3 C266.39955,39.2942703 265.594733,39.4138188 264.822512,39.6543961 C264.120794,39.8737414 263.455417,40.1957672 262.848019,40.61 C262.294728,40.9864519 261.792685,41.4331852 261.354493,41.9389855 C261.145726,42.1805146 260.951317,42.4340909 260.772271,42.6984058 C260.282128,41.8007281 259.580496,41.0361008 258.728164,40.4707729 C257.507547,39.6650529 256.070545,39.2500661 254.608309,39.2810145 C253.384327,39.2672318 252.180885,39.5960412 251.133961,40.2302899 C250.471039,40.6338162 249.862737,41.1208831 249.32401,41.6795169 L249.32401,39.9328502 L245.39401,39.9328502 L245.39401,59.5512077 L249.32401,59.5512077 L249.32401,48.6978261 L249.330338,48.6978261 Z" id="Shape"></path>
                    <path d="M293.788068,59.4183092 C294.981746,58.8930155 296.057772,58.1333413 296.952319,57.1843478 C297.855134,56.216274 298.564056,55.0841479 299.040725,53.8492271 C299.548097,52.5353778 299.803577,51.1377509 299.793816,49.729372 C299.800489,48.4141535 299.586573,47.1071259 299.160966,45.862657 C298.748225,44.6393166 298.103624,43.5069676 297.262415,42.5275362 C295.424549,40.4254227 292.751005,39.2438741 289.959324,39.3 C289.066677,39.2886531 288.176668,39.3993719 287.31401,39.6290821 C286.600636,39.821968 285.912429,40.0981005 285.263575,40.4517874 C284.703608,40.7614998 284.183024,41.1375953 283.713092,41.5719324 L283.225797,42.04657 L283.225797,39.9328502 L279.302126,39.9328502 L279.302126,68.8034783 L283.225797,68.8034783 L283.225797,57.614686 C283.896545,58.2481451 284.647628,58.7907128 285.459758,59.2284541 C286.810384,59.9309715 288.317159,60.2793587 289.839082,60.2410145 C291.20696,60.2492846 292.561201,59.968948 293.813382,59.4183092 M286.915314,56.1338164 C285.319256,55.4827889 284.054595,54.2135631 283.409324,52.6151691 C283.055171,51.7300711 282.878836,50.7838798 282.890386,49.830628 C282.875216,48.8459036 283.044796,47.8670634 283.390338,46.9448309 C283.700294,46.1325995 284.159647,45.3856129 284.744638,44.7425121 C285.302809,44.1346792 285.984709,43.6534648 286.744444,43.331256 C287.531274,42.9992629 288.377567,42.8312964 289.231546,42.8376329 C290.210923,42.8176011 291.1822,43.0187788 292.073043,43.4261836 C292.84763,43.7924692 293.537344,44.3162209 294.098164,44.9640097 C294.643076,45.6104103 295.057826,46.3561002 295.319565,47.16 C295.867542,48.8182699 295.867542,50.6088315 295.319565,52.2671014 C295.059427,53.0677703 294.651587,53.8126154 294.11715,54.4630918 C293.564644,55.1165872 292.881221,55.6469404 292.111014,56.0199034 C290.452027,56.7879212 288.547402,56.8269316 286.858357,56.1274879" id="Shape"></path>
                    <path d="M316.735217,59.2284541 C317.540452,58.7889431 318.285036,58.2464608 318.950193,57.614686 L318.950193,59.5701932 L322.873865,59.5701932 L322.873865,39.9518357 L318.950193,39.9518357 L318.950193,42.033913 C318.806747,41.886248 318.659082,41.7406924 318.507198,41.5972464 C318.034567,41.1615933 317.511988,40.783467 316.950386,40.4707729 C316.349404,40.1281797 315.712772,39.8523062 315.051836,39.6480676 C314.260792,39.4161156 313.439656,39.303076 312.615362,39.312657 C311.22073,39.2994361 309.837425,39.5640496 308.546135,40.0910628 C307.330098,40.5944974 306.224866,41.3320349 305.293285,42.2617391 C304.354497,43.2102297 303.616272,44.338014 303.122609,45.5778744 C302.074262,48.3124768 302.090071,51.3408871 303.166908,54.0643961 C303.682333,55.30189 304.432333,56.427964 305.375556,57.3805314 C306.29524,58.3004594 307.390749,59.0257767 308.596763,59.5132367 C309.803543,59.9996244 311.092754,60.248872 312.393865,60.247343 C313.897527,60.284914 315.385707,59.9362921 316.716232,59.2347826 M307.951256,54.4694203 C307.409502,53.8273016 307.002709,53.0825897 306.755169,52.2797585 C306.497716,51.4605163 306.365436,50.6070968 306.362802,49.7483575 C306.363543,48.8879788 306.502428,48.0333001 306.774155,47.2169565 C307.036152,46.409394 307.443664,45.6565693 307.97657,44.9956522 C308.521872,44.3288791 309.209502,43.7926141 309.989034,43.4261836 C310.901761,43.0173046 311.893918,42.8162793 312.893816,42.8376329 C314.570772,42.8242302 316.176952,43.5125928 317.323768,44.7361836 C317.916296,45.3735427 318.380414,46.1191404 318.690725,46.9321739 C319.036267,47.8544064 319.205847,48.8332466 319.190676,49.817971 C319.202668,50.7648869 319.019559,51.7041302 318.652754,52.5771981 C318.312586,53.3745082 317.827657,54.1019019 317.222512,54.7225604 C316.641854,55.315358 315.952041,55.7902759 315.191063,56.1211594 C314.436012,56.448173 313.621711,56.6162034 312.798889,56.6147826 C310.930968,56.6667648 309.139742,55.871181 307.925942,54.4504348" id="Shape"></path>
                    <path d="M339.96715,54.1340097 C339.968475,53.4790973 339.868134,52.8279478 339.66971,52.2038164 C339.458008,51.558236 339.125084,50.9589724 338.688792,50.4381643 C338.181142,49.8452243 337.580552,49.338677 336.910483,48.9383092 C336.054092,48.4313931 335.140635,48.0277724 334.189227,47.7358937 C333.501392,47.5434199 332.83379,47.2848565 332.195749,46.9638164 C331.794661,46.7591938 331.418751,46.5085869 331.075604,46.2170531 C330.872694,46.047985 330.715932,45.8302598 330.619952,45.5842029 C330.544019,45.3556246 330.505551,45.1162707 330.506039,44.8754106 C330.498955,44.31835 330.729042,43.7845472 331.138889,43.4071981 C331.678716,42.9500937 332.376254,42.7228823 333.081739,42.7743478 C333.70794,42.7674632 334.314465,42.9929374 334.784106,43.4071981 C335.265261,43.8132993 335.593439,44.3714264 335.714396,44.9893237 L335.78401,45.3120773 L339.783623,45.3120773 L339.66971,44.8121256 C339.511335,44.0897533 339.262564,43.3902172 338.929275,42.7300483 C338.594404,42.0746581 338.146674,41.4833971 337.606618,40.9833816 C337.028573,40.4605855 336.35635,40.0525267 335.625797,39.7809662 C334.767295,39.4744605 333.860243,39.3265017 332.948841,39.3442995 C332.031317,39.3275431 331.118222,39.4754387 330.252899,39.7809662 C329.51663,40.0445559 328.840861,40.4534608 328.265749,40.9833816 C327.738613,41.480307 327.32426,42.0845725 327.050676,42.7553623 C326.781742,43.4231338 326.644219,44.1365347 326.645652,44.8564251 C326.593262,46.251252 327.083186,47.6121523 328.012609,48.6535266 C329.170711,49.7571008 330.590699,50.547677 332.138792,50.9507729 C332.846782,51.1768568 333.538246,51.4517509 334.208213,51.7734783 C334.644788,51.9794945 335.046273,52.2528458 335.397971,52.5835266 C335.635998,52.8070863 335.81624,53.0850505 335.923237,53.3935749 C336.018039,53.7118326 336.064962,54.0424246 336.062464,54.3744928 C336.081154,55.0067362 335.841175,55.6192541 335.397971,56.0705314 C334.831245,56.5684085 334.086767,56.8150454 333.334879,56.7540097 C332.477511,56.822838 331.628046,56.5472743 330.974348,55.9882609 C330.442905,55.4589462 330.077757,54.7858428 329.923816,54.0517391 L329.854203,53.7289855 L325.879903,53.7289855 L325.974831,54.2162802 C326.129148,55.033987 326.390884,55.8277062 326.753237,56.5768116 C327.109275,57.2904908 327.591708,57.9337357 328.17715,58.4753623 C328.799489,59.034505 329.526519,59.4647004 330.316184,59.7410628 C331.245691,60.0633989 332.22464,60.2197736 333.208309,60.2030435 C334.995555,60.2876654 336.749048,59.6956356 338.119227,58.5449758 C339.364736,57.4161567 340.048016,55.7948148 339.986135,54.1150242" id="Shape"></path>
                    <path d="M350.168696,56.7476812 C349.311328,56.8165095 348.461862,56.5409458 347.808164,55.9819324 C347.279033,55.4518164 346.916128,54.7787916 346.763961,54.0454106 L346.694348,53.722657 L342.720048,53.722657 L342.814976,54.2162802 C342.969865,55.0338394 343.231576,55.8274848 343.593382,56.5768116 C343.94942,57.2904908 344.431853,57.9337357 345.017295,58.4753623 C345.639634,59.034505 346.366664,59.4647004 347.156329,59.7410628 C348.085804,60.063527 349.064776,60.2199054 350.048454,60.2030435 C351.8357,60.2876654 353.589193,59.6956356 354.959372,58.5449758 C356.204881,57.4161567 356.888161,55.7948148 356.82628,54.1150242 C356.827605,53.4601118 356.727264,52.8089623 356.528841,52.1848309 C356.317869,51.5440763 355.987149,50.9492088 355.554251,50.4318357 C355.046601,49.8388958 354.446011,49.3323485 353.775942,48.9319807 C352.919497,48.4251705 352.006052,48.0215554 351.054686,47.7295652 C350.366851,47.5370914 349.699249,47.278528 349.061208,46.9574879 C348.666309,46.7498156 348.296793,46.497101 347.960048,46.2043961 C347.757139,46.035328 347.600377,45.8176028 347.504396,45.5715459 C347.428463,45.3429676 347.389996,45.1036137 347.390483,44.8627536 C347.383399,44.305693 347.613487,43.7718902 348.023333,43.3945411 C348.56316,42.9374367 349.260699,42.7102253 349.966184,42.7616908 C350.592384,42.7548062 351.19891,42.9802804 351.668551,43.3945411 C352.149705,43.8006423 352.477884,44.3587694 352.598841,44.9766667 L352.668454,45.2994203 L356.668068,45.2994203 L356.554155,44.7994686 C356.39565,44.0771334 356.146885,43.3776131 355.81372,42.7173913 C355.476725,42.0616485 355.026856,41.4703926 354.484734,40.9707246 C353.906597,40.4480525 353.234398,40.0400089 352.503913,39.7683092 C351.645446,39.4616668 350.738369,39.3137039 349.826957,39.3316425 C348.909433,39.3148861 347.996338,39.4627817 347.131014,39.7683092 C346.394895,40.0322109 345.719185,40.44108 345.143865,40.9707246 C344.616729,41.46765 344.202376,42.0719155 343.928792,42.7427053 C343.659858,43.4104768 343.522335,44.1238777 343.523768,44.8437681 C343.471378,46.2385949 343.961302,47.5994953 344.890725,48.6408696 C346.035371,49.761396 347.446764,50.57164 348.991594,50.9950725 C349.697417,51.2214685 350.386756,51.4963581 351.054686,51.8177778 C351.491262,52.0237941 351.892747,52.2971453 352.244444,52.6278261 C352.482471,52.8513858 352.662713,53.12935 352.76971,53.4378744 C352.857953,53.748599 352.900589,54.0704951 352.89628,54.3934783 C352.913294,55.0266445 352.670978,55.639293 352.225459,56.0895169 C351.657728,56.5851133 350.913363,56.8294296 350.162367,56.7666667" id="Shape"></path>
                    <path d="M236.356908,84.5614493 C235.545043,83.5122469 234.517886,82.6490896 233.344541,82.0300483 C230.655311,80.7407607 227.539693,80.6784483 224.801063,81.8591787 C223.63934,82.3947153 222.59593,83.1562967 221.731739,84.0994686 C220.875822,85.0483381 220.209846,86.1525696 219.769903,87.3523188 C219.31119,88.5853753 219.077549,89.890763 219.080097,91.2063768 C219.068013,92.6519887 219.323336,94.0873737 219.833188,95.4401449 C220.308958,96.701068 221.022201,97.8590143 221.934251,98.8512077 C222.853131,99.8344077 223.970558,100.610998 225.212415,101.129469 C226.555635,101.687512 227.998064,101.967386 229.452512,101.952174 C230.509383,101.965641 231.56128,101.805291 232.566135,101.477536 C233.444991,101.187691 234.278151,100.774307 235.04058,100.249807 C235.730063,99.775102 236.351741,99.208779 236.888502,98.5664251 C237.374282,97.9921815 237.798502,97.3685779 238.154203,96.7058454 L238.470628,96.0729952 L234.040676,96.0729952 L233.920435,96.2248792 C233.398385,96.8658797 232.752728,97.3953179 232.021884,97.7816908 C231.205014,98.1632567 230.309231,98.3454499 229.408213,98.313285 C228.595522,98.3154775 227.791394,98.1473219 227.047681,97.8196618 C226.309134,97.4958416 225.632469,97.0461586 225.047874,96.4906763 C224.47618,95.9471597 224.008628,95.3037398 223.668261,94.5921256 C223.390163,94.0099982 223.222775,93.3812198 223.174638,92.7378744 L238.363043,92.7378744 L238.438986,92.4277778 C238.47885,92.2339252 238.502139,92.0370306 238.508599,91.8392271 C238.508599,91.598744 238.508599,91.3772464 238.508599,91.2063768 C238.495249,90.0641217 238.324893,88.9291274 238.002319,87.833285 C237.663366,86.6391709 237.100707,85.5202961 236.344251,84.5361353 L236.356908,84.5614493 Z M223.212609,89.3394686 C223.310643,88.8232035 223.467781,88.3199393 223.680918,87.8396135 C223.957427,87.212079 224.347965,86.6412926 224.832705,86.1562319 C225.33401,85.6599778 225.924451,85.2627716 226.573043,84.9854589 C228.688392,84.0707229 231.147603,84.5369954 232.781304,86.1625604 C233.270693,86.6405575 233.667605,87.204817 233.952077,87.8269565 C234.178175,88.3171721 234.341884,88.8338142 234.439372,89.3647826 L223.225266,89.3647826 L223.212609,89.3394686 Z" id="Shape"></path>
                    <path d="M252.792029,81.6693237 L248.805072,92.908744 C248.568808,93.5964412 248.336763,94.3305475 248.108937,95.1110628 C248.020338,95.4148309 247.938068,95.710161 247.862126,95.9970531 C247.80306,95.7734461 247.737665,95.537182 247.665942,95.2882609 C247.431787,94.4782126 247.159662,93.6744928 246.874879,92.908744 L242.843623,81.6693237 L238.780725,81.6693237 L246.039517,101.287681 L249.558164,101.287681 L256.816957,81.6693237 L252.792029,81.6693237 Z" id="Shape"></path>
                    <path d="M274.08744,84.5614493 C273.275575,83.5122469 272.248417,82.6490896 271.075072,82.0300483 C268.385842,80.7407607 265.270225,80.6784483 262.531594,81.8591787 C261.369871,82.3947153 260.326462,83.1562967 259.462271,84.0994686 C258.606353,85.0483381 257.940377,86.1525696 257.500435,87.3523188 C257.041721,88.5853753 256.808081,89.890763 256.810628,91.2063768 C256.798544,92.6519887 257.053867,94.0873737 257.56372,95.4401449 C258.039489,96.701068 258.752732,97.8590143 259.664783,98.8512077 C260.583662,99.8344077 261.701089,100.610998 262.942947,101.129469 C264.286166,101.687512 265.728596,101.967386 267.183043,101.952174 C268.237795,101.964947 269.287498,101.804606 270.290338,101.477536 C271.169194,101.187691 272.002354,100.774307 272.764783,100.249807 C273.454266,99.775102 274.075944,99.208779 274.612705,98.5664251 C275.098485,97.9921815 275.522705,97.3685779 275.878406,96.7058454 L276.194831,96.0729952 L271.764879,96.0729952 L271.638309,96.2248792 C271.116259,96.8658797 270.470603,97.3953179 269.739758,97.7816908 C268.922889,98.1632567 268.027105,98.3454499 267.126087,98.313285 C266.313397,98.3154775 265.509268,98.1473219 264.765556,97.8196618 C264.027009,97.4958416 263.350343,97.0461586 262.765749,96.4906763 C262.194054,95.9471597 261.726503,95.3037398 261.386135,94.5921256 C261.108038,94.0099982 260.94065,93.3812198 260.892512,92.7378744 L276.080918,92.7378744 L276.15686,92.4277778 C276.196398,92.2338725 276.219683,92.0370057 276.226473,91.8392271 C276.226473,91.598744 276.226473,91.3772464 276.226473,91.2063768 C276.213043,90.0641282 276.042689,88.9291447 275.720193,87.833285 C275.38124,86.6391709 274.818581,85.5202961 274.062126,84.5361353 L274.08744,84.5614493 Z M260.930483,89.3394686 C261.028463,88.8231899 261.185602,88.3199195 261.398792,87.8396135 C261.675302,87.212079 262.06584,86.6412926 262.55058,86.1562319 C263.05198,85.6600955 263.642398,85.2629052 264.290918,84.9854589 C266.389087,84.0843993 268.823666,84.5393208 270.454879,86.1372464 C270.944267,86.6152435 271.34118,87.179503 271.625652,87.8016425 C271.851687,88.2918821 272.015395,88.8085163 272.112947,89.3394686 L260.955797,89.3394686 L260.930483,89.3394686 Z" id="Shape"></path>
                    <rect id="Rectangle-path" x="279.270483" y="73.6954106" width="3.9236715" height="27.611256"></rect>
                    <path d="M304.160483,84.0235266 C303.209637,83.0829374 302.082804,82.3388837 300.844348,81.8338647 C298.168337,80.7911675 295.198378,80.7911675 292.522367,81.8338647 C289.998513,82.824809 287.992092,84.808352 286.972271,87.3206763 C286.434985,88.6427148 286.164006,90.0578258 286.174879,91.4848309 C286.165682,92.8993786 286.436692,94.3017454 286.972271,95.6110145 C287.480883,96.8577389 288.231563,97.9912876 289.180918,98.9461353 C292.2591,101.958575 296.844569,102.829265 300.812705,101.154783 C302.057244,100.619892 303.187349,99.850733 304.141498,98.8891787 C305.082872,97.9316924 305.826862,96.7985054 306.331159,95.554058 C306.85241,94.2632764 307.116818,92.8831964 307.109565,91.4911594 C307.117931,90.0805514 306.853616,88.6816188 306.331159,87.3713043 C305.837782,86.1294278 305.099574,84.9995174 304.160483,84.0488406 M302.578357,94.2377295 C302.275963,95.0456064 301.822822,95.7886707 301.243043,96.4273913 C300.676437,97.0432169 299.9864,97.5327113 299.217923,97.8639614 C297.600135,98.5504512 295.772908,98.5504512 294.155121,97.8639614 C293.383855,97.5335496 292.688253,97.0489973 292.111014,96.4400483 C291.509624,95.8082062 291.03106,95.0699723 290.699758,94.2630435 C290.344171,93.3805733 290.167766,92.4361592 290.180821,91.4848309 C290.170252,90.5474694 290.333323,89.6162523 290.661787,88.7382609 C290.962526,87.9423563 291.413739,87.2118215 291.990773,86.58657 C292.562004,85.9807978 293.25119,85.4983676 294.015894,85.1689855 C295.68782,84.4679031 297.57131,84.4679031 299.243237,85.1689855 C300.012971,85.5066292 300.702981,86.0025737 301.268357,86.6245411 C301.822352,87.2625372 302.251684,87.9988417 302.534058,88.7952174 C303.165931,90.53915 303.165931,92.4494973 302.534058,94.19343" id="Shape"></path>
                    <path d="M327.968309,84.2640097 C326.130442,82.1618961 323.456899,80.9803475 320.665217,81.0364734 C319.772571,81.0251265 318.882562,81.1358453 318.019903,81.3655556 C317.306623,81.5587187 316.618448,81.8348385 315.969469,82.1882609 C315.409336,82.4977118 314.888721,82.8738291 314.418986,83.3084058 C314.248116,83.4666184 314.089903,83.6248309 313.931691,83.7830435 L313.931691,81.6693237 L309.989034,81.6693237 L309.989034,110.539952 L313.912705,110.539952 L313.912705,99.3258454 C314.583639,99.959079 315.334692,100.501624 316.146667,100.939614 C317.497292,101.642131 319.004067,101.990518 320.52599,101.952174 C323.229677,101.965151 325.818205,100.858727 327.677198,98.8955072 C328.579705,97.9295973 329.288639,96.7995999 329.765604,95.566715 C330.273415,94.2529893 330.52891,92.8552783 330.518696,91.4468599 C330.525369,90.1316414 330.311453,88.8246138 329.885845,87.5801449 C329.473104,86.3568046 328.828503,85.2244555 327.987295,84.2450242 M326.088744,93.9845894 C325.828882,94.7853774 325.421015,95.5302718 324.886329,96.1805797 C324.333692,96.8339391 323.6503,97.3642681 322.880193,97.7373913 C321.280457,98.4985978 319.437035,98.5638668 317.787469,97.9177067 C316.137902,97.2715465 314.829269,95.9715699 314.172174,94.3263285 C313.817702,93.4413233 313.641354,92.4950678 313.653237,91.5417874 C313.638515,90.5570982 313.80808,89.5783406 314.153188,88.6559903 C314.463144,87.8437589 314.922498,87.0967723 315.507488,86.4536715 C316.065659,85.8458386 316.747559,85.3646242 317.507295,85.0424155 C318.294124,84.7104223 319.140417,84.5424558 319.994396,84.5487923 C320.973249,84.5272114 321.944409,84.7262019 322.835894,85.1310145 C323.61048,85.4973001 324.300194,86.0210518 324.861014,86.6688406 C325.405663,87.3154226 325.820383,88.0610588 326.082415,88.8648309 C326.630392,90.5231008 326.630392,92.3136625 326.082415,93.9719324" id="Shape"></path>
                    <path d="M355.326425,81.0364734 C354.517646,81.0311498 353.712891,81.150689 352.94058,81.3908696 C352.238999,81.6105604 351.57367,81.9325623 350.966087,82.3464734 C350.412796,82.7229254 349.910753,83.1696586 349.47256,83.6754589 C349.263604,83.9190426 349.069192,84.174736 348.890338,84.4412077 C348.394132,83.5490004 347.688229,82.7909696 346.833575,82.2325604 C345.612958,81.4268404 344.175956,81.0118536 342.71372,81.0428019 C341.492177,81.0213856 340.288907,81.3413809 339.239372,81.9667633 C338.57653,82.3704044 337.968242,82.85746 337.42942,83.4159903 L337.42942,81.6693237 L333.505749,81.6693237 L333.505749,101.287681 L337.42942,101.287681 L337.42942,90.465942 C337.42942,88.6116908 337.866087,87.1624638 338.695121,86.1562319 C339.548969,85.1557735 340.817691,84.6066951 342.131498,84.6690338 C342.719726,84.6578475 343.302508,84.783503 343.833865,85.036087 C344.330627,85.2819184 344.763812,85.6392959 345.099565,86.0802899 C345.461119,86.5634629 345.737237,87.1049971 345.915942,87.681401 C346.119134,88.3391877 346.219464,89.0244221 346.213382,89.7128502 L346.213382,101.319324 L350.181353,101.319324 L350.181353,90.465942 C350.161478,89.5673253 350.298541,88.6721313 350.586377,87.820628 C350.817182,87.1541269 351.176219,86.5392493 351.643237,86.0106763 C352.050384,85.5643006 352.554966,85.2178065 353.117778,84.9981159 C354.281306,84.5363376 355.581962,84.5637198 356.725024,85.074058 C357.223756,85.3337986 357.656643,85.7039175 357.990725,86.1562319 C358.336492,86.6337024 358.587813,87.1728602 358.731159,87.744686 C358.894673,88.3921502 358.975478,89.0577259 358.971643,89.7255072 L358.971643,101.331981 L362.895314,101.331981 L362.895314,89.9406763 C362.895314,87.0675362 362.186522,84.8778744 360.781594,83.3337198 C359.369414,81.8134073 357.368768,80.9780742 355.294783,81.0428019" id="Shape"></path>
                    <path d="M382.988309,84.5614493 C382.176444,83.5122469 381.149287,82.6490896 379.975942,82.0300483 C377.286712,80.7407607 374.171094,80.6784483 371.432464,81.8591787 C370.270741,82.3947153 369.227331,83.1562967 368.36314,84.0994686 C367.507223,85.0483381 366.841247,86.1525696 366.401304,87.3523188 C365.942591,88.5853753 365.70895,89.890763 365.711498,91.2063768 C365.699414,92.6519887 365.954737,94.0873737 366.464589,95.4401449 C366.940359,96.701068 367.653602,97.8590143 368.565652,98.8512077 C369.484532,99.8344077 370.601959,100.610998 371.843816,101.129469 C373.187036,101.687512 374.629465,101.967386 376.083913,101.952174 C377.138664,101.964947 378.188367,101.804606 379.191208,101.477536 C380.070064,101.187691 380.903223,100.774307 381.665652,100.249807 C382.355135,99.775102 382.976813,99.208779 383.513575,98.5664251 C383.999354,97.9921815 384.423574,97.3685779 384.779275,96.7058454 L385.0957,96.0729952 L380.665749,96.0729952 L380.539179,96.2248792 C380.017129,96.8658797 379.371472,97.3953179 378.640628,97.7816908 C377.823758,98.1632567 376.927975,98.3454499 376.026957,98.313285 C375.214266,98.3154775 374.410138,98.1473219 373.666425,97.8196618 C372.927878,97.4958416 372.251212,97.0461586 371.666618,96.4906763 C371.094924,95.9471597 370.627372,95.3037398 370.287005,94.5921256 C370.008629,94.0101008 369.841227,93.3812692 369.793382,92.7378744 L384.981787,92.7378744 L385.057729,92.4277778 C385.097267,92.2338725 385.120553,92.0370057 385.127343,91.8392271 C385.127343,91.598744 385.127343,91.3772464 385.127343,91.2063768 C385.113913,90.0641282 384.943559,88.9291447 384.621063,87.833285 C384.28211,86.6391709 383.719451,85.5202961 382.962995,84.5361353 L382.988309,84.5614493 Z M369.831353,89.3394686 C369.929333,88.8231899 370.086472,88.3199195 370.299662,87.8396135 C370.576171,87.212079 370.966709,86.6412926 371.451449,86.1562319 C371.95285,85.6600955 372.543268,85.2629052 373.191787,84.9854589 C375.289956,84.0843993 377.724536,84.5393208 379.355749,86.1372464 C379.845137,86.6152435 380.24205,87.179503 380.526522,87.8016425 C380.752557,88.2918821 380.916264,88.8085163 381.013816,89.3394686 L369.856667,89.3394686 L369.831353,89.3394686 Z" id="Shape"></path>
                    <path d="M402.92942,83.0172947 C402.208079,82.3288921 401.343734,81.8081243 400.398019,81.4921256 C398.445352,80.8232226 396.313703,80.9044282 394.417585,81.7199517 C393.522443,82.110816 392.720137,82.6866646 392.063382,83.4096618 L392.063382,81.6693237 L388.13971,81.6693237 L388.13971,101.287681 L392.063382,101.287681 L392.063382,90.8772947 C392.063382,88.7952174 392.531691,87.2130918 393.449324,86.1815459 C394.403458,85.1362401 395.776219,84.5741281 397.189469,84.6500483 C398.411497,84.5822123 399.59537,85.0875809 400.391691,86.0170048 C401.176425,86.9472947 401.568792,88.3269082 401.568792,90.1305314 L401.568792,101.306667 L405.492464,101.306667 L405.492464,89.9153623 C405.531683,88.4910591 405.286415,87.0732391 404.771014,85.7448792 C404.352337,84.7107151 403.725493,83.7736808 402.92942,82.9919807" id="Shape"></path>
                    <path d="M418.206425,97.7880193 C417.124128,98.1268686 415.97171,98.1748861 414.864976,97.9272464 C414.578916,97.8379246 414.324257,97.6688839 414.13087,97.4399517 C413.897244,97.1423767 413.738776,96.7928796 413.668889,96.4210628 C413.547878,95.8255986 413.492699,95.2186352 413.504348,94.6111111 L413.504348,85.0803865 L418.529179,85.0803865 L418.529179,81.6629952 L413.504348,81.6629952 L413.504348,75.6509179 L409.580676,75.6509179 L409.580676,81.6629952 L407.106232,81.6629952 L407.106232,85.0803865 L409.580676,85.0803865 L409.580676,94.4908696 C409.577818,95.361921 409.645543,96.2317721 409.783188,97.0918841 C409.906354,97.9005242 410.192723,98.6756596 410.624879,99.3701449 C411.070422,100.059326 411.696444,100.613116 412.434831,100.971256 C413.369068,101.388606 414.386731,101.585642 415.409227,101.54715 C416.437576,101.570693 417.463077,101.429687 418.446908,101.129469 L418.725362,101.034541 L418.725362,97.6487923 L418.206425,97.7880193 Z" id="Shape"></path>
                    <path d="M203.379082,61.2535749 C209.740903,61.2301189 215.414003,57.2442989 217.592899,51.2671981 L213.036377,51.2671981 C210.638756,55.7388603 205.496027,57.9933748 200.582789,56.7267107 C195.669551,55.4600466 192.257841,51.0001434 192.321023,45.926648 C192.384205,40.8531526 195.90592,36.4795934 200.849178,35.3356752 C205.792436,34.191757 210.877426,36.5736404 213.162947,41.1036232 L217.687826,41.1036232 C215.162152,33.7857113 207.536684,29.5383742 199.985281,31.2434172 C192.433878,32.9484603 187.373199,40.060222 188.2369,47.7533933 C189.100602,55.4465647 195.612274,61.259115 203.353768,61.2472464" id="Shape"></path>
                    <path d="M201.860242,71.0564251 L191.348599,71.0564251 L191.348599,101.433237 L201.860242,101.433237 C210.248566,101.433237 217.048647,94.6331558 217.048647,86.2448309 C217.048647,77.856506 210.248566,71.0564251 201.860242,71.0564251 M201.860242,97.2374396 L195.531739,97.2374396 L195.531739,75.2395652 L201.860242,75.2395652 C207.936534,75.2395652 212.862343,80.1653738 212.862343,86.2416667 C212.862343,92.3179595 207.936534,97.2437681 201.860242,97.2437681" id="Shape"></path>
                </g>
            </g>
        </g>
    </g>
</svg>